<?xml version="1.0" encoding="UTF-8" standalone="no"?>
<!-- Created with Inkscape (http://www.inkscape.org/) -->

<svg
   version="1.1"
   id="svg1"
   width="860"
   height="196"
   viewBox="0 0 860 196"
   sodipodi:docname="logo-text.svg"
   inkscape:version="1.4.2 (ebf0e940, 2025-05-08)"
   xmlns:inkscape="http://www.inkscape.org/namespaces/inkscape"
   xmlns:sodipodi="http://sodipodi.sourceforge.net/DTD/sodipodi-0.dtd"
   xmlns:xlink="http://www.w3.org/1999/xlink"
   xmlns="http://www.w3.org/2000/svg"
   xmlns:svg="http://www.w3.org/2000/svg">
  <defs
     id="defs1">
    <linearGradient
       id="linearGradient8"
       inkscape:collect="always">
      <stop
         style="stop-color:#646464;stop-opacity:0.4356223;"
         offset="0"
         id="stop8" />
      <stop
         style="stop-color:#646464;stop-opacity:0;"
         offset="0.89344263"
         id="stop9" />
    </linearGradient>
    <radialGradient
       inkscape:collect="always"
       xlink:href="#linearGradient8"
       id="radialGradient9-4"
       cx="361.85004"
       cy="401.17276"
       fx="361.85004"
       fy="401.17276"
       r="55.037643"
       gradientTransform="matrix(1,0,0,0.20895523,-29.23047,315.00772)"
       gradientUnits="userSpaceOnUse" />
    <linearGradient
       inkscape:collect="always"
       xlink:href="#linearGradient41"
       id="linearGradient42"
       x1="377.02637"
       y1="362.27283"
       x2="667.50549"
       y2="652.75195"
       gradientUnits="userSpaceOnUse"
       gradientTransform="matrix(0.27473122,0,0,0.27473122,190.74247,187.8026)" />
    <linearGradient
       id="linearGradient41"
       inkscape:collect="always">
      <stop
         style="stop-color:#ffd43b;stop-opacity:1;"
         offset="0"
         id="stop41" />
      <stop
         style="stop-color:#ffe873;stop-opacity:1;"
         offset="1"
         id="stop42" />
    </linearGradient>
    <linearGradient
       inkscape:collect="always"
       xlink:href="#linearGradient39"
       id="linearGradient40"
       x1="300.54364"
       y1="479.76151"
       x2="729.47137"
       y2="479.76151"
       gradientUnits="userSpaceOnUse"
       gradientTransform="matrix(0.27473122,0,0,0.27473122,190.74247,187.8026)" />
    <linearGradient
       id="linearGradient39"
       inkscape:collect="always">
      <stop
         style="stop-color:#4361ee;stop-opacity:1;"
         offset="0"
         id="stop39" />
      <stop
         style="stop-color:#7368ee;stop-opacity:1;"
         offset="1"
         id="stop40" />
    </linearGradient>
  </defs>
  <sodipodi:namedview
     id="namedview1"
     pagecolor="#ffffff"
     bordercolor="#000000"
     borderopacity="0.25"
     inkscape:showpageshadow="2"
     inkscape:pageopacity="0.0"
     inkscape:pagecheckerboard="0"
     inkscape:deskcolor="#d1d1d1"
     showgrid="false"
     showguides="false"
     inkscape:lockguides="false"
     inkscape:zoom="0.62511237"
     inkscape:cx="244.75599"
     inkscape:cy="71.987057"
     inkscape:window-width="1352"
     inkscape:window-height="815"
     inkscape:window-x="0"
     inkscape:window-y="35"
     inkscape:window-maximized="0"
     inkscape:current-layer="g1">
    <sodipodi:guide
       position="27.881188,-344.61716"
       orientation="1,0"
       id="guide13"
       inkscape:locked="false" />
    <sodipodi:guide
       position="508.83168,157.24422"
       orientation="0,-1"
       id="guide14"
       inkscape:locked="false" />
    <sodipodi:guide
       position="396.76392,37.28018"
       orientation="0,-1"
       id="guide15"
       inkscape:locked="false" />
    <sodipodi:guide
       position="146.21941,-21.86475"
       orientation="1,0"
       id="guide16"
       inkscape:locked="false" />
    <sodipodi:guide
       position="832.13633,51.24496"
       orientation="1,0"
       id="guide6"
       inkscape:locked="false" />
    <sodipodi:guide
       position="-65.716591,61.9239"
       orientation="0,-1"
       id="guide7"
       inkscape:locked="false" />
    <sodipodi:guide
       position="-57.502017,107.10406"
       orientation="0,-1"
       id="guide8"
       inkscape:locked="false" />
    <sodipodi:guide
       position="101.86072,233.78704"
       orientation="1,0"
       id="guide9"
       inkscape:locked="false" />
  </sodipodi:namedview>
  <style
     id="style1">
        #text2 {
            fill: #646464;
        }
        #text2 path {
            fill: #646464;
        }
        @media (prefers-color-scheme: dark) {
            #text2 { fill: #cdcdcd; }
            #text2 path { fill: #cdcdcd; }
        }
  </style>
  <g
     inkscape:groupmode="layer"
     inkscape:label="Image"
     id="g1"
     transform="translate(-272.31119,-223.73795)">
    <g
       id="text2"
       aria-label="universal pathlib"
       inkscape:label="Text">
      <path
         d="m 818.67676,371.20759 v -58.45331 q 1.70666,-0.59733 4.01066,-1.10933 2.38933,-0.512 5.46133,-0.85334 3.072,-0.42666 6.82667,-0.42666 6.57066,0 11.51999,2.816 4.94933,2.73066 7.68,7.93599 2.73066,5.12 2.73066,12.288 0,6.74133 -2.38933,11.94666 -2.304,5.20533 -6.74133,8.192 -4.43733,2.90133 -10.83733,2.90133 -4.096,0 -7.25333,-1.10933 -3.072,-1.19467 -4.608,-2.304 v 18.17599 z m 17.49332,-20.47999 q 3.84,0 6.48533,-1.28 2.73067,-1.36533 4.352,-3.75467 1.70667,-2.38933 2.38933,-5.46133 0.768,-3.15733 0.768,-6.74133 0,-5.54666 -1.87733,-9.47199 -1.87733,-3.92534 -5.376,-5.97334 -3.41333,-2.04799 -8.02133,-2.04799 -3.75466,0 -6.22933,0.42666 -2.38933,0.34134 -3.584,0.68267 v 29.95199 q 1.45067,1.10933 4.43733,2.38933 2.98667,1.28 6.656,1.28 z m 45.82393,5.632 q -4.77867,0 -8.53333,-1.36534 -3.75467,-1.36533 -5.888,-4.43733 -2.13333,-3.072 -2.13333,-8.10666 0,-4.864 2.38933,-7.85067 2.38933,-3.07199 6.57066,-4.43733 4.26667,-1.36533 9.55733,-1.36533 2.38933,0 5.03467,0.42667 2.64533,0.42666 3.32799,0.768 v -2.56 q 0,-2.90133 -0.768,-5.54667 -0.68266,-2.73066 -2.90133,-4.43733 -2.21866,-1.70666 -6.74133,-1.70666 -4.69333,0 -7.168,0.68266 -2.47466,0.68267 -3.66933,1.10933 l -0.85333,-5.46133 q 1.536,-0.68266 4.69333,-1.28 3.15733,-0.59733 7.424,-0.59733 6.05866,0 9.55733,2.13333 3.584,2.13334 5.12,5.888 1.62133,3.66933 1.62133,8.448 v 27.73332 q -1.792,0.42667 -6.4,1.19467 -4.608,0.768 -10.23999,0.768 z m 0.93866,-5.46134 q 2.98667,0 5.376,-0.17066 2.38933,-0.256 4.01066,-0.59734 v -14.84799 q -0.85333,-0.42667 -2.90133,-0.85333 -2.048,-0.42667 -5.29066,-0.42667 -2.73067,0 -5.54667,0.59733 -2.816,0.59734 -4.77866,2.38934 -1.87733,1.792 -1.87733,5.37599 0,4.77867 2.98666,6.656 2.98667,1.87733 8.02133,1.87733 z m 43.94663,5.46134 q -5.632,0 -8.87466,-1.96267 -3.24267,-1.96267 -4.608,-5.888 -1.28,-3.92533 -1.28,-9.81333 v -40.27731 l 6.4,-1.10934 v 13.90933 h 17.32266 v 5.376 h -17.32266 v 22.61332 q 0,4.69333 1.024,7.168 1.10933,2.47467 3.072,3.41333 2.048,0.85333 4.77866,0.85333 3.24267,0 5.376,-0.768 2.21867,-0.768 3.49867,-1.36533 l 1.36533,5.20533 q -1.28,0.768 -4.26667,1.70667 -2.90133,0.93867 -6.48533,0.93867 z m 19.11462,-0.93867 v -65.10931 l 6.4,-1.10933 v 23.12532 q 2.47467,-0.93866 5.20533,-1.45066 2.816,-0.512 5.46133,-0.512 6.99733,0 10.83733,2.56 3.84,2.56 5.376,7.16799 1.62133,4.52267 1.62133,10.58133 v 24.74666 h -6.39999 v -22.95466 q 0,-6.05866 -1.10934,-9.64266 -1.10933,-3.584 -3.75466,-5.20533 -2.64533,-1.62133 -7.424,-1.62133 -1.792,0 -3.92533,0.42666 -2.048,0.34134 -3.66933,0.768 -1.62133,0.42667 -2.21867,0.68267 v 37.54665 z m 60.67188,0.768 q -4.096,-0.17067 -6.82663,-1.36533 -2.64533,-1.19467 -3.92533,-3.66934 -1.28,-2.55999 -1.28,-6.82666 v -54.01598 l 6.39996,-1.10933 v 54.69864 q 0,4.096 1.4507,5.29067 1.536,1.19466 5.12,1.70666 z m 10.4106,-0.768 v -44.20265 h 6.4 v 44.20265 z m 3.2427,-54.78398 q -1.8774,0 -3.2427,-1.28 -1.28,-1.28 -1.28,-3.41333 0,-2.048 1.28,-3.328 1.3653,-1.28 3.2427,-1.28 1.8773,0 3.1573,1.28 1.3653,1.28 1.3653,3.328 0,2.13333 -1.3653,3.41333 -1.28,1.28 -3.1573,1.28 z m 33.792,55.80798 q -3.7547,0 -6.8267,-0.42667 -3.072,-0.34133 -5.4613,-0.85333 -2.304,-0.59733 -4.0107,-1.10933 v -63.74398 l 6.4,-1.10933 v 24.49066 q 1.536,-1.10934 4.608,-2.21867 3.1574,-1.19467 7.2534,-1.19467 6.4,0 10.8373,2.98667 4.4373,2.90133 6.7413,8.10666 2.3894,5.20533 2.3894,11.94666 0,7.168 -2.7307,12.37333 -2.7307,5.12 -7.68,7.936 -4.9493,2.816 -11.52,2.816 z m -0.085,-5.71733 q 4.608,0 8.0213,-2.048 3.4987,-2.048 5.376,-5.888 1.8773,-3.92533 1.8773,-9.472 0,-3.58399 -0.768,-6.74133 -0.6826,-3.15733 -2.3893,-5.54666 -1.6213,-2.38933 -4.352,-3.66933 -2.6453,-1.36533 -6.4853,-1.36533 -3.6694,0 -6.656,1.27999 -2.9867,1.19467 -4.4374,2.38934 v 29.95198 q 1.1947,0.34134 3.584,0.768 2.4747,0.34134 6.2294,0.34134 z"
         id="path10"
         inkscape:label="pathlib" />
      <path
         d="m 474.18654,356.27426 q -6.65599,0 -10.58133,-2.47466 -3.83999,-2.56 -5.54666,-7.168 -1.62133,-4.608 -1.62133,-10.66666 v -24.74666 h 6.39999 v 23.03999 q 0,5.97333 1.19467,9.55733 1.19467,3.584 3.84,5.20533 2.73066,1.536 7.168,1.536 3.58399,0 6.31466,-0.34133 2.816,-0.42667 3.66933,-0.68267 v -38.31465 h 6.31467 v 42.66665 q -2.56,0.68267 -6.912,1.536 -4.26667,0.85333 -10.24,0.85333 z m 31.48792,-0.85333 v -42.66665 q 2.64533,-0.68267 6.91199,-1.536 4.26667,-0.85333 10.24,-0.85333 6.912,0 10.75199,2.56 3.84,2.56 5.376,7.16799 1.62133,4.52267 1.62133,10.58133 v 24.74666 h -6.39999 v -22.95466 q 0,-6.05866 -1.10934,-9.64266 -1.10933,-3.584 -3.75466,-5.20533 -2.64533,-1.62133 -7.33866,-1.62133 -3.584,0 -6.31467,0.42666 -2.73066,0.42667 -3.584,0.68267 v 38.31465 z m 48.72523,0 v -44.20265 h 6.4 v 44.20265 z m 3.24267,-54.78398 q -1.87733,0 -3.24267,-1.28 -1.28,-1.28 -1.28,-3.41333 0,-2.048 1.28,-3.328 1.36534,-1.28 3.24267,-1.28 1.87733,0 3.15733,1.28 1.36533,1.28 1.36533,3.328 0,2.13333 -1.36533,3.41333 -1.28,1.28 -3.15733,1.28 z m 27.98925,54.78398 q -2.13333,-4.52267 -4.352,-9.728 -2.21866,-5.20533 -4.352,-10.83733 -2.13333,-5.63199 -4.09599,-11.51999 -1.87734,-5.97333 -3.41334,-12.11733 h 6.74133 q 1.36534,5.888 3.41334,12.71466 2.13333,6.74133 4.52266,13.22666 2.47467,6.4 4.69333,11.264 1.70667,-3.584 3.49867,-8.192 1.792,-4.608 3.49866,-9.55733 1.70667,-5.03466 3.15733,-9.98399 1.45067,-5.03467 2.47467,-9.472 h 6.4 q -1.536,6.144 -3.49867,12.11733 -1.87733,5.888 -4.01066,11.51999 -2.13333,5.632 -4.352,10.83733 -2.13333,5.20533 -4.352,9.728 z m 50.176,0.93867 q -7.76533,0 -12.62933,-2.98667 -4.77867,-2.98667 -7.08266,-8.192 -2.21867,-5.20533 -2.21867,-11.86133 0,-7.76533 2.816,-12.88532 2.816,-5.12 7.25333,-7.68 4.52266,-2.56 9.47199,-2.56 5.54667,0 9.55733,2.38933 4.096,2.304 6.31467,7.168 2.21866,4.77867 2.21866,12.20266 0,0.59734 -0.0853,1.45067 0,0.768 -0.0853,1.45066 h -30.80532 q 0.34133,7.50933 4.01066,11.69067 3.75467,4.09599 11.60533,4.09599 4.352,0 7.08266,-0.768 2.816,-0.85333 4.01067,-1.45066 l 1.10933,5.376 q -1.19466,0.68266 -4.69333,1.62133 -3.41333,0.93867 -7.85066,0.93867 z m -15.104,-26.70933 h 24.31999 q -0.0853,-4.352 -1.45066,-7.42399 -1.36534,-3.15734 -3.92533,-4.77867 -2.47467,-1.70666 -6.144,-1.70666 -3.75467,0 -6.57067,1.96266 -2.81599,1.96267 -4.43733,5.12 -1.536,3.15733 -1.792,6.82666 z m 42.83731,25.77066 v -42.15465 q 2.21867,-0.93867 6.05867,-1.87733 3.92533,-1.024 9.38666,-1.024 1.792,0 3.49866,0.256 1.792,0.17066 3.15734,0.512 1.45066,0.256 2.13333,0.512 l -1.28,5.46133 q -0.768,-0.34133 -2.90133,-0.68267 -2.13334,-0.42666 -5.46133,-0.42666 -3.24267,0 -5.376,0.512 -2.13333,0.42666 -2.816,0.76799 v 38.14399 z m 41.81329,1.024 q -5.71733,0 -8.96,-1.024 -3.15733,-0.93867 -4.26666,-1.45067 l 1.536,-5.63199 q 0.93867,0.34133 3.84,1.45066 2.90133,1.10933 7.85066,1.10933 4.69333,0 7.59466,-1.45066 2.90134,-1.45067 2.90134,-5.03467 0,-2.304 -1.024,-3.66933 -1.024,-1.45066 -3.328,-2.64533 -2.21867,-1.19467 -6.144,-2.73067 -3.328,-1.36533 -6.144,-2.90133 -2.816,-1.536 -4.60799,-3.92533 -1.70667,-2.38933 -1.70667,-6.144 0,-3.66933 1.87733,-6.39999 1.87733,-2.73067 5.29067,-4.26667 3.49866,-1.536 8.27733,-1.536 4.43733,0 7.50933,0.768 3.072,0.768 4.352,1.36533 l -1.45067,5.54667 q -1.10933,-0.59734 -3.584,-1.36533 -2.47467,-0.85334 -6.99733,-0.85334 -3.584,0 -6.22933,1.536 -2.64533,1.45067 -2.64533,4.69333 0,2.304 1.10933,3.75467 1.10933,1.36533 3.328,2.47466 2.21866,1.10934 5.46133,2.38934 3.66933,1.45066 6.57066,3.07199 2.98667,1.536 4.77867,4.01067 1.792,2.47467 1.792,6.57066 0,4.01067 -2.048,6.82667 -2.048,2.73066 -5.888,4.096 -3.75466,1.36533 -9.04533,1.36533 z m 40.95999,-0.0853 q -4.77867,0 -8.53333,-1.36534 -3.75467,-1.36533 -5.888,-4.43733 -2.13333,-3.072 -2.13333,-8.10666 0,-4.864 2.38933,-7.85067 2.38933,-3.07199 6.57066,-4.43733 4.26667,-1.36533 9.55733,-1.36533 2.38933,0 5.03467,0.42667 2.64533,0.42666 3.32799,0.768 v -2.56 q 0,-2.90133 -0.768,-5.54667 -0.68266,-2.73066 -2.90133,-4.43733 -2.21866,-1.70666 -6.74133,-1.70666 -4.69333,0 -7.16799,0.68266 -2.47467,0.68267 -3.66934,1.10933 l -0.85333,-5.46133 q 1.536,-0.68266 4.69333,-1.28 3.15733,-0.59733 7.424,-0.59733 6.05866,0 9.55733,2.13333 3.584,2.13334 5.12,5.888 1.62133,3.66933 1.62133,8.448 v 27.73332 q -1.792,0.42667 -6.4,1.19467 -4.608,0.768 -10.23999,0.768 z m 0.93866,-5.46134 q 2.98667,0 5.376,-0.17066 2.38933,-0.256 4.01066,-0.59734 v -14.84799 q -0.85333,-0.42667 -2.90133,-0.85333 -2.048,-0.42667 -5.29066,-0.42667 -2.73067,0 -5.54667,0.59733 -2.816,0.59734 -4.77866,2.38934 -1.87733,1.792 -1.87733,5.37599 0,4.77867 2.98666,6.656 2.98667,1.87733 8.02133,1.87733 z m 41.472,5.29067 q -4.096,-0.17067 -6.82667,-1.36533 -2.64533,-1.19467 -3.92533,-3.66934 -1.28,-2.55999 -1.28,-6.82666 v -54.01598 l 6.4,-1.10933 v 54.69864 q 0,4.096 1.45067,5.29067 1.536,1.19466 5.11999,1.70666 z"
         id="path9"
         inkscape:label="universal" />
    </g>
    <g
       id="g2"
       inkscape:label="Logo"
       transform="translate(37.072869,0.7141705)">
      <ellipse
         style="display:inline;fill:url(#radialGradient9-4);stroke:none;stroke-width:3.9;stroke-dasharray:none;stroke-opacity:1"
         id="path8-9"
         cx="332.61957"
         cy="398.83487"
         rx="55.037643"
         ry="11.500403"
         inkscape:label="shadow" />
      <path
         id="ellipse23"
         style="display:inline;fill:url(#linearGradient42);fill-opacity:1;stroke:none;stroke-width:2;stroke-linecap:square;stroke-dasharray:none;stroke-opacity:1"
         inkscape:label="Snake"
         d="m 312.66861,275.24576 a 20.542536,10.026713 0 0 0 -20.54297,10.02735 v 10.02539 59.17773 h 0.0156 a 20.899078,10.026713 0 0 0 -0.0156,0.37891 20.899078,10.026713 0 0 0 20.90039,10.02734 20.899078,10.026713 0 0 0 20.89844,-10.02734 20.899078,10.026713 0 0 0 -0.0156,-0.37891 h 0.0156 v -4.42968 -21.2168 -0.0488 a 11.357334,11.279114 0 0 1 11.2168,-11.23047 h 18.91211 a 10.026713,20.42926 0 0 0 0,0.0703 10.026713,20.42926 0 0 0 0.0488,1.98829 h -18.96094 v 0.002 c -5.00205,0.12022 -8.99218,4.18674 -8.99219,9.21875 v 50.3887 a 58.920096,59.869557 0 0 0 20.54297,-5.25586 v -35.91211 h 1.27148 16.11719 a 10.026713,20.42926 0 0 0 10.02734,-20.42969 10.026713,20.42926 0 0 0 -10.02734,-20.42969 h -49.94336 c -5.42204,0 -9.78711,4.36507 -9.78711,9.78711 v 37.85352 h -0.75 a 20.899078,10.026713 0 0 0 -0.57422,-0.004 20.899078,10.026713 0 0 0 -0.57422,0.004 h -0.34961 v -38.27148 h 0.0195 a 11.357334,11.279114 0 0 1 10.69531,-11.26172 h 10.39453 v -10.01954 a 20.542536,10.026713 0 0 0 0,-0.006 20.542536,10.026713 0 0 0 -20.54297,-10.02734 z m 77.98633,52.05664 a 58.920096,59.869557 0 0 1 -0.50391,2.65821 58.920096,59.869557 0 0 0 0.50391,-2.65821 z m -1.46485,7.56641 a 58.920096,59.869557 0 0 1 -0.94921,2.93164 58.920096,59.869557 0 0 0 0.94921,-2.93164 z m -2.41796,7.33008 a 58.920096,59.869557 0 0 1 -1.37891,2.93945 58.920096,59.869557 0 0 0 1.37891,-2.93945 z m -108.97657,0.32031 a 58.920096,59.869557 0 0 0 7.69141,13.53516 58.920096,59.869557 0 0 1 -7.69141,-13.53516 z m 7.69141,13.53516 a 58.920096,59.869557 0 0 0 5.08203,5.88867 58.920096,59.869557 0 0 1 -5.08203,-5.88867 z m 97.97266,-6.93164 a 58.920096,59.869557 0 0 1 -1.81641,2.875 58.920096,59.869557 0 0 0 1.81641,-2.875 z m -4.16993,6.45507 a 58.920096,59.869557 0 0 1 -2.19531,2.65625 58.920096,59.869557 0 0 0 2.19531,-2.65625 z m -4.94726,5.84375 a 58.920096,59.869557 0 0 1 -2.54688,2.39063 58.920096,59.869557 0 0 0 2.54688,-2.39063 z m -5.65234,5.15626 a 58.920096,59.869557 0 0 1 -2.85352,2.06445 58.920096,59.869557 0 0 0 2.85352,-2.06445 z m -6.24024,4.36328 a 58.920096,59.869557 0 0 1 -3.15039,1.71484 58.920096,59.869557 0 0 0 3.15039,-1.71484 z" />
      <path
         id="path22"
         style="display:inline;fill:url(#linearGradient40);fill-opacity:1;stroke:none;stroke-width:2;stroke-linecap:square;stroke-dasharray:none;stroke-opacity:1"
         inkscape:label="Blue"
         d="m 332.23111,259.73795 a 58.920096,59.869557 0 0 0 -58.91992,59.8711 58.920096,59.869557 0 0 0 58.91992,59.86913 58.920096,59.869557 0 0 0 3.91797,-0.13281 v -50.51562 c 10e-6,-5.03201 3.99014,-9.09853 8.99219,-9.21875 v -0.002 h 18.96094 a 10.026713,20.42926 0 0 1 -0.0488,-1.98828 10.026713,20.42926 0 0 1 0,-0.0703 H 345.1413 a 11.357334,11.279114 0 0 0 -11.2168,11.23047 v 0.0488 21.21679 4.42969 h -0.0156 a 20.899078,10.026713 0 0 1 0.0156,0.37891 20.899078,10.026713 0 0 1 -20.89844,10.02734 20.899078,10.026713 0 0 1 -20.90039,-10.02734 20.899078,10.026713 0 0 1 0.0156,-0.37891 h -0.0156 V 295.2985 285.27311 a 20.542536,10.026713 0 0 1 20.54297,-10.02735 20.542536,10.026713 0 0 1 20.54297,10.02735 20.542536,10.026713 0 0 1 0,0.006 v 10.01953 h -10.39453 a 11.357334,11.279114 0 0 0 -10.69531,11.26172 h -0.0195 v 38.27149 h 0.34961 a 20.899078,10.026713 0 0 1 0.57422,-0.004 20.899078,10.026713 0 0 1 0.57422,0.004 h 0.75 v -37.85352 c 0,-5.42204 4.36507,-9.78711 9.78711,-9.78711 h 49.94336 a 10.026713,20.42926 0 0 1 10.02734,20.42969 10.026713,20.42926 0 0 1 -10.02734,20.42969 h -16.11719 -1.27148 v 36.02344 A 58.920096,59.869557 0 0 0 391.1511,319.6092 58.920096,59.869557 0 0 0 332.23118,259.7381 Z" />
      <ellipse
         style="display:inline;fill:#ffffff;fill-opacity:1;stroke:none;stroke-width:0.222584;stroke-dasharray:none;stroke-opacity:1"
         id="path23"
         cx="323.64066"
         cy="286.79712"
         rx="3.8681757"
         ry="3.7433958"
         inkscape:label="Eye" />
    </g>
  </g>
</svg>
