<?xml version="1.0" encoding="UTF-8" standalone="no"?>
<!-- Created with Inkscape (http://www.inkscape.org/) -->

<svg
   version="1.1"
   id="svg1"
   width="128"
   height="128"
   viewBox="0 0 128 128"
   sodipodi:docname="logo-128x128.svg"
   inkscape:version="1.4.2 (ebf0e940, 2025-05-08)"
   xmlns:inkscape="http://www.inkscape.org/namespaces/inkscape"
   xmlns:sodipodi="http://sodipodi.sourceforge.net/DTD/sodipodi-0.dtd"
   xmlns:xlink="http://www.w3.org/1999/xlink"
   xmlns="http://www.w3.org/2000/svg"
   xmlns:svg="http://www.w3.org/2000/svg">
  <defs
     id="defs1">
    <linearGradient
       id="linearGradient8">
      <stop
         style="stop-color:#646464;stop-opacity:0.4356223;"
         offset="0"
         id="stop34" />
      <stop
         style="stop-color:#646464;stop-opacity:0;"
         offset="0.89344263"
         id="stop35" />
    </linearGradient>
    <linearGradient
       inkscape:collect="always"
       xlink:href="#linearGradient41"
       id="linearGradient42"
       x1="377.02637"
       y1="362.27283"
       x2="667.50549"
       y2="652.75195"
       gradientUnits="userSpaceOnUse"
       gradientTransform="matrix(0.27473122,0,0,0.27473122,238.13228,194.40115)" />
    <linearGradient
       id="linearGradient41"
       inkscape:collect="always">
      <stop
         style="stop-color:#ffd43b;stop-opacity:1;"
         offset="0"
         id="stop41" />
      <stop
         style="stop-color:#ffe873;stop-opacity:1;"
         offset="1"
         id="stop42" />
    </linearGradient>
    <linearGradient
       inkscape:collect="always"
       xlink:href="#linearGradient39"
       id="linearGradient40"
       x1="300.54364"
       y1="479.76151"
       x2="729.47137"
       y2="479.76151"
       gradientUnits="userSpaceOnUse"
       gradientTransform="matrix(0.27473122,0,0,0.27473122,238.13228,194.40115)" />
    <linearGradient
       id="linearGradient39"
       inkscape:collect="always">
      <stop
         style="stop-color:#4361ee;stop-opacity:1;"
         offset="0"
         id="stop39" />
      <stop
         style="stop-color:#7368ee;stop-opacity:1;"
         offset="1"
         id="stop40" />
    </linearGradient>
  </defs>
  <sodipodi:namedview
     id="namedview1"
     pagecolor="#ffffff"
     bordercolor="#000000"
     borderopacity="0.25"
     inkscape:showpageshadow="2"
     inkscape:pageopacity="0.0"
     inkscape:pagecheckerboard="0"
     inkscape:deskcolor="#d1d1d1"
     showgrid="false"
     showguides="false"
     inkscape:lockguides="false"
     inkscape:zoom="1.0706166"
     inkscape:cx="33.625481"
     inkscape:cy="101.81049"
     inkscape:window-width="1352"
     inkscape:window-height="815"
     inkscape:window-x="0"
     inkscape:window-y="35"
     inkscape:window-maximized="0"
     inkscape:current-layer="g1">
    <sodipodi:guide
       position="-14.348537,-375.16677"
       orientation="1,0"
       id="guide13"
       inkscape:locked="false" />
    <sodipodi:guide
       position="466.60196,126.69462"
       orientation="0,-1"
       id="guide14"
       inkscape:locked="false" />
    <sodipodi:guide
       position="354.53421,6.7305801"
       orientation="0,-1"
       id="guide15"
       inkscape:locked="false" />
    <sodipodi:guide
       position="103.98969,-52.41435"
       orientation="1,0"
       id="guide16"
       inkscape:locked="false" />
    <sodipodi:guide
       position="789.90662,20.69536"
       orientation="1,0"
       id="guide6"
       inkscape:locked="false" />
    <sodipodi:guide
       position="-107.94632,31.374299"
       orientation="0,-1"
       id="guide7"
       inkscape:locked="false" />
    <sodipodi:guide
       position="-99.731743,76.554459"
       orientation="0,-1"
       id="guide8"
       inkscape:locked="false" />
    <sodipodi:guide
       position="59.630995,202.23744"
       orientation="1,0"
       id="guide9"
       inkscape:locked="false" />
  </sodipodi:namedview>
  <g
     inkscape:groupmode="layer"
     inkscape:label="Image"
     id="g1"
     transform="translate(-314.54091,-262.07673)">
    <g
       id="text2"
       style="font-size:85.3333px;font-family:'Ubuntu Sans';-inkscape-font-specification:'Ubuntu Sans';fill:#646464"
       aria-label="universal pathlib"
       inkscape:label="Text" />
    <path
       id="ellipse23"
       style="display:inline;fill:url(#linearGradient42);fill-opacity:1;stroke:none;stroke-width:2;stroke-linecap:square;stroke-dasharray:none;stroke-opacity:1"
       inkscape:label="Snake"
       d="m 360.05842,281.84431 a 20.542536,10.026713 0 0 0 -20.54297,10.02735 v 10.02539 59.17773 h 0.0156 a 20.899078,10.026713 0 0 0 -0.0156,0.37891 20.899078,10.026713 0 0 0 20.90039,10.02734 20.899078,10.026713 0 0 0 20.89844,-10.02734 20.899078,10.026713 0 0 0 -0.0156,-0.37891 h 0.0156 v -4.42968 -21.2168 -0.0488 a 11.357334,11.279114 0 0 1 11.2168,-11.23047 h 18.91211 a 10.026713,20.42926 0 0 0 0,0.0703 10.026713,20.42926 0 0 0 0.0488,1.98829 h -18.96094 v 0.002 c -5.00205,0.12022 -8.99218,4.18674 -8.99219,9.21875 v 50.3887 a 58.920096,59.869557 0 0 0 20.54297,-5.25586 V 344.6491 h 1.27148 16.11719 a 10.026713,20.42926 0 0 0 10.02734,-20.42969 10.026713,20.42926 0 0 0 -10.02734,-20.42969 h -49.94336 c -5.42204,0 -9.78711,4.36507 -9.78711,9.78711 v 37.85352 h -0.75 a 20.899078,10.026713 0 0 0 -0.57422,-0.004 20.899078,10.026713 0 0 0 -0.57422,0.004 h -0.34961 v -38.27158 h 0.0195 a 11.357334,11.279114 0 0 1 10.69531,-11.26172 h 10.39453 v -10.01954 a 20.542536,10.026713 0 0 0 0,-0.006 20.542536,10.026713 0 0 0 -20.54297,-10.02734 z m 77.98633,52.05664 a 58.920096,59.869557 0 0 1 -0.50391,2.65821 58.920096,59.869557 0 0 0 0.50391,-2.65821 z m -1.46485,7.56641 a 58.920096,59.869557 0 0 1 -0.94921,2.93164 58.920096,59.869557 0 0 0 0.94921,-2.93164 z m -2.41796,7.33008 a 58.920096,59.869557 0 0 1 -1.37891,2.93945 58.920096,59.869557 0 0 0 1.37891,-2.93945 z m -108.97657,0.32031 a 58.920096,59.869557 0 0 0 7.69141,13.53516 58.920096,59.869557 0 0 1 -7.69141,-13.53516 z m 7.69141,13.53516 a 58.920096,59.869557 0 0 0 5.08203,5.88867 58.920096,59.869557 0 0 1 -5.08203,-5.88867 z m 97.97266,-6.93164 a 58.920096,59.869557 0 0 1 -1.81641,2.875 58.920096,59.869557 0 0 0 1.81641,-2.875 z m -4.16993,6.45507 a 58.920096,59.869557 0 0 1 -2.19531,2.65625 58.920096,59.869557 0 0 0 2.19531,-2.65625 z m -4.94726,5.84375 a 58.920096,59.869557 0 0 1 -2.54688,2.39063 58.920096,59.869557 0 0 0 2.54688,-2.39063 z m -5.65234,5.15626 a 58.920096,59.869557 0 0 1 -2.85352,2.06445 58.920096,59.869557 0 0 0 2.85352,-2.06445 z m -6.24024,4.36328 a 58.920096,59.869557 0 0 1 -3.15039,1.71484 58.920096,59.869557 0 0 0 3.15039,-1.71484 z" />
    <path
       id="path22"
       style="display:inline;fill:url(#linearGradient40);fill-opacity:1;stroke:none;stroke-width:2;stroke-linecap:square;stroke-dasharray:none;stroke-opacity:1"
       inkscape:label="Blue"
       d="m 379.62092,266.3365 a 58.920096,59.869557 0 0 0 -58.91992,59.8711 58.920096,59.869557 0 0 0 58.91992,59.86913 58.920096,59.869557 0 0 0 3.91797,-0.13281 V 335.4283 c 1e-5,-5.03201 3.99014,-9.09853 8.99219,-9.21875 v -0.002 h 18.96094 a 10.026713,20.42926 0 0 1 -0.0488,-1.98828 10.026713,20.42926 0 0 1 0,-0.0703 h -18.91211 a 11.357334,11.279114 0 0 0 -11.2168,11.23047 v 0.0488 21.21679 4.42969 h -0.0156 a 20.899078,10.026713 0 0 1 0.0156,0.37891 20.899078,10.026713 0 0 1 -20.89844,10.02734 20.899078,10.026713 0 0 1 -20.90039,-10.02734 20.899078,10.026713 0 0 1 0.0156,-0.37891 h -0.0156 v -59.17776 -10.02539 a 20.542536,10.026713 0 0 1 20.54297,-10.02735 20.542536,10.026713 0 0 1 20.54297,10.02735 20.542536,10.026713 0 0 1 0,0.006 v 10.01953 h -10.39453 a 11.357334,11.279114 0 0 0 -10.69531,11.26172 h -0.0195 v 38.27149 h 0.34961 a 20.899078,10.026713 0 0 1 0.57422,-0.004 20.899078,10.026713 0 0 1 0.57422,0.004 h 0.75 v -37.85352 c 0,-5.42204 4.36507,-9.78711 9.78711,-9.78711 h 49.94336 a 10.026713,20.42926 0 0 1 10.02734,20.42969 10.026713,20.42926 0 0 1 -10.02734,20.42969 h -16.11719 -1.27148 v 36.02344 a 58.920096,59.869557 0 0 0 34.45898,-54.46484 58.920096,59.869557 0 0 0 -58.91992,-59.8711 z" />
    <ellipse
       style="display:inline;fill:#ffffff;fill-opacity:1;stroke:none;stroke-width:0.222584;stroke-dasharray:none;stroke-opacity:1"
       id="path23"
       cx="371.03046"
       cy="293.39566"
       rx="3.8681757"
       ry="3.7433958"
       inkscape:label="Eye" />
  </g>
</svg>
